<?xml version="1.0" encoding="utf-8"?>
<!-- Generator: Adobe Illustrator 16.0.0, SVG Export Plug-In . SVG Version: 6.00 Build 0)  -->
<!DOCTYPE svg PUBLIC "-//W3C//DTD SVG 1.1//EN" "http://www.w3.org/Graphics/SVG/1.1/DTD/svg11.dtd">
<svg version="1.1" id="Layer_1" xmlns="http://www.w3.org/2000/svg" xmlns:xlink="http://www.w3.org/1999/xlink" x="0px" y="0px"
	 width="200px" height="194px" viewBox="0 0 200 194" enable-background="new 0 0 200 194" xml:space="preserve">
<path fill="#1B1FA2" d="M150.984,113.201h-1.642c-0.618,0-1.12,0.501-1.12,1.119v49.148c0,0.618,0.502,1.119,1.12,1.119h1.642
	c0.619,0,1.121-0.501,1.121-1.119V114.32C152.105,113.702,151.604,113.201,150.984,113.201z"/>
<path fill="#1B1FA2" d="M98.38,133.064h-11.65v45.216h11.65V133.064z"/>
<path fill="#353BDE" d="M78.509,178.28c0.167-4.665,4.014-8.397,8.727-8.397c4.714,0,8.562,3.732,8.727,8.397H78.509z"/>
<path fill="#1B1FA2" d="M134.748,133.064h-11.65v45.216h11.65V133.064z"/>
<path fill="#353BDE" d="M114.37,178.28c0.166-4.665,4.013-8.397,8.728-8.397c4.713,0,8.561,3.732,8.727,8.397H114.37z"/>
<path fill="#2329D6" d="M107.758,135.648h-11.65v42.632h11.65V135.648z"/>
<path fill="#5459E3" d="M87.381,178.28c0.166-4.466,4.013-8.04,8.727-8.04c4.713,0,8.561,3.574,8.727,8.04H87.381z"/>
<path fill="#2329D6" d="M142.709,135.648h-11.65v42.632h11.65V135.648z"/>
<path fill="#5459E3" d="M122.332,178.28c0.166-4.466,4.013-8.04,8.727-8.04c4.713,0,8.561,3.574,8.728,8.04H122.332z"/>
<path fill="#353BDE" d="M79.591,54.259c2.617,0,4.741,2.323,4.741,5.183v55.52c0,2.86-2.124,5.183-4.741,5.183
	c-2.617,0-4.741-2.322-4.741-5.183v-55.52C74.85,56.582,76.974,54.259,79.591,54.259z"/>
<path fill="#1B1FA2" d="M80.259,78.805c0-3.208,0.87-5.813,1.942-5.813s1.942,2.605,1.942,5.813c0,3.208-0.87,5.813-1.942,5.813
	S80.259,82.013,80.259,78.805z"/>
<path fill="#1B1FA2" d="M75.081,94.953c0-2.139,0.87-3.875,1.941-3.875c1.072,0,1.942,1.737,1.942,3.875
	c0,2.139-0.87,3.876-1.942,3.876C75.951,98.829,75.081,97.092,75.081,94.953z"/>
<path fill="#1B1FA2" d="M82.628,5.742h-1.845v11.553h1.845V5.742z"/>
<path fill="#1B1FA2" d="M74.24,6.057h-1.792V17.61h1.792V6.057z"/>
<path fill="#1B1FA2" d="M54.491,9.753c2.293-2.497,6.568-2.315,9.54,0.404L75.028,20.22c2.972,2.719,3.522,6.954,1.229,9.45
	c-2.293,2.497-6.567,2.316-9.54-0.404L55.72,19.203C52.748,16.484,52.197,12.25,54.491,9.753z"/>
<path fill="#5459E3" d="M57.308,12.331c1.207-1.314,3.694-1.002,5.55,0.696l9.405,8.606c1.856,1.698,2.383,4.144,1.176,5.458
	s-3.694,1.002-5.55-0.696l-9.405-8.606C56.628,16.09,56.101,13.645,57.308,12.331z"/>
<path fill="#1B1FA2" d="M103.184,9.318c2.355,2.438,1.911,6.684-0.99,9.477L91.453,29.131c-2.902,2.792-7.171,3.081-9.527,0.643
	c-2.355-2.438-1.912-6.685,0.99-9.478L93.657,9.96C96.56,7.167,100.828,6.879,103.184,9.318z"/>
<path fill="#5459E3" d="M100.432,11.965c1.239,1.284,0.774,3.741-1.039,5.485l-9.186,8.84c-1.812,1.744-4.291,2.119-5.53,0.835
	c-1.24-1.283-0.775-3.741,1.038-5.486l9.186-8.839C96.714,11.057,99.191,10.683,100.432,11.965z"/>
<path fill="#2329D6" d="M77.344,14.695h0.655c6.606,0,11.971,5.353,11.971,11.945v15.673c0,6.593-5.364,11.946-11.971,11.946h-0.655
	c-6.606,0-11.97-5.353-11.97-11.946V26.641C65.374,20.048,70.737,14.695,77.344,14.695z"/>
<path fill="#1B1FA2" d="M70.552,5.115c0-1.579,1.251-2.862,2.792-2.862s2.792,1.283,2.792,2.862s-1.251,2.862-2.792,2.862
	S70.552,6.694,70.552,5.115z"/>
<path fill="#1B1FA2" d="M78.966,5.115c0-1.579,1.251-2.862,2.793-2.862c1.541,0,2.792,1.283,2.792,2.862S83.3,7.978,81.759,7.978
	C80.217,7.978,78.966,6.694,78.966,5.115z"/>
<path fill="#5459E3" d="M62.138,50.061c0-9.448,7.541-17.118,16.829-17.118c9.288,0,16.829,7.67,16.829,17.118
	c0,9.447-7.541,17.117-16.829,17.117C69.678,67.178,62.138,59.508,62.138,50.061z"/>
<path fill="#8DC53E" d="M84.681,57.063c0.078,0.054,0.15,0.12,0.214,0.197l3.538,4.261c0.407,0.49,0.339,1.218-0.152,1.624
	c-0.492,0.405-1.22,0.337-1.627-0.153L83.57,59.28L84.681,57.063z"/>
<path fill="#8DC53E" d="M83.887,59.502c0.044,0.049,0.082,0.106,0.113,0.171l1.726,3.562c0.199,0.41,0.053,0.934-0.327,1.17
	c-0.379,0.236-0.847,0.095-1.046-0.314l-1.503-3.103L83.887,59.502z"/>
<path fill="none" stroke="#1B1FA2" stroke-width="2" stroke-linecap="square" stroke-miterlimit="3" d="M84.936,55.551
	c-0.081,3.579-2.982,6.459-6.545,6.459c-3.562,0-6.464-2.88-6.544-6.459"/>
<path fill="#1B1FA2" d="M69.76,42.632c0-1.783,1.015-3.229,2.266-3.229s2.265,1.447,2.265,3.229c0,1.783-1.015,3.23-2.265,3.23
	S69.76,44.415,69.76,42.632z"/>
<path fill="#1B1FA2" d="M82.85,42.632c0-1.783,1.015-3.229,2.265-3.229c1.25,0,2.266,1.447,2.266,3.229
	c0,1.783-1.016,3.23-2.266,3.23C83.865,45.862,82.85,44.415,82.85,42.632z"/>
<path fill="#0D3241" d="M72.067,22.772c0.95,0,1.721,0.787,1.721,1.756v1.62c0,0.969-0.771,1.756-1.721,1.756
	c-0.95,0-1.722-0.787-1.722-1.756v-1.62C70.345,23.56,71.117,22.772,72.067,22.772z"/>
<path fill="#0D3241" d="M82.558,22.772c0.979,0,1.774,0.798,1.774,1.78v1.556c0,0.982-0.795,1.78-1.774,1.78
	s-1.775-0.798-1.775-1.78v-1.556C80.783,23.57,81.578,22.772,82.558,22.772z"/>
<path fill="#2329D6" d="M95.276,96.245h38.188c11.61,0,21.036,9.407,21.036,20.993c0,11.587-9.426,20.992-21.036,20.992H95.276
	c-11.61,0-21.036-9.405-21.036-20.992C74.241,105.652,83.666,96.245,95.276,96.245z"/>
<path fill="#1B1FA2" d="M98.384,102.382c0-2.674,2.004-4.845,4.472-4.845c2.471,0,4.474,2.171,4.474,4.845
	c0,2.673-2.003,4.845-4.474,4.845C100.388,107.227,98.384,105.055,98.384,102.382z"/>
<path fill="#1B1FA2" d="M133.335,128.704c0-4.011,3.437-7.267,7.669-7.267s7.67,3.256,7.67,7.267c0,4.01-3.438,7.267-7.67,7.267
	S133.335,132.714,133.335,128.704z"/>
<path fill="#1B1FA2" d="M95.795,127.25c0-3.208,2.72-5.812,6.07-5.812s6.072,2.604,6.072,5.812c0,3.209-2.722,5.814-6.072,5.814
	S95.795,130.459,95.795,127.25z"/>
<path fill="#1B1FA2" d="M110.682,108.841c0-4.635,3.916-8.397,8.737-8.397c4.822,0,8.738,3.763,8.738,8.397
	c0,4.636-3.916,8.397-8.738,8.397C114.598,117.238,110.682,113.477,110.682,108.841z"/>
<path fill="#1B1FA2" d="M141.102,114.009c0-1.782,1.596-3.229,3.561-3.229s3.561,1.447,3.561,3.229s-1.596,3.229-3.561,3.229
	S141.102,115.791,141.102,114.009z"/>
<path fill="#1B1FA2" d="M87.381,113.201c0-3.832,3.245-6.944,7.242-6.944c3.998,0,7.243,3.112,7.243,6.944
	c0,3.833-3.245,6.943-7.243,6.943C90.626,120.145,87.381,117.034,87.381,113.201z"/>
</svg>
