<svg width="686" height="651" viewBox="0 0 686 651" fill="none" xmlns="http://www.w3.org/2000/svg">
<path d="M397.347 53.4783C397.347 81.8115 373.112 104.957 342.994 104.957C312.875 104.957 288.64 81.8115 288.64 53.4783C288.64 25.145 312.875 2 342.994 2C373.112 2 397.347 25.145 397.347 53.4783Z" stroke="#2533D2" stroke-width="4"/>
<path d="M514.887 343.023L514.884 342.994C506.969 258.606 481.844 208.174 458.852 178.884C447.351 164.232 436.362 154.844 428.283 149.132C424.243 146.275 420.93 144.337 418.642 143.119C417.498 142.51 416.61 142.081 416.017 141.808C415.72 141.671 415.497 141.573 415.352 141.511C415.279 141.48 415.226 141.458 415.194 141.445L415.16 141.431L415.156 141.429L415.154 141.428L415.025 141.377L414.904 141.308L414.903 141.308L414.903 141.307L414.895 141.303L414.857 141.282C414.822 141.262 414.767 141.231 414.693 141.191C414.544 141.109 414.318 140.986 414.016 140.827C413.413 140.509 412.509 140.045 411.323 139.473C408.951 138.329 405.452 136.752 400.978 135.042C392.029 131.62 379.195 127.669 363.687 125.564C332.716 121.36 291.079 124.512 248.317 153.991C192.916 201.904 179.998 275.094 171.122 346.603L514.887 343.023ZM514.887 343.023L514.891 343.053M514.887 343.023L514.891 343.053M514.891 343.053C515.938 351.53 513.242 357.647 508.716 361.685C504.119 365.786 497.437 367.91 490.323 367.882C476.021 367.827 461.091 359.183 459.01 342.537M514.891 343.053L226.978 346.112M226.978 346.112L226.978 346.111C232.277 303.439 239.87 260.206 262.421 223.314L266.145 217.221L266.127 224.362L266.024 265.541V265.542L265.613 463.429L265.613 463.433L265.613 620.423C265.613 636.189 277.75 649 294.959 649C312.305 649 326.105 636.044 326.105 620.423V396.017V394.017H328.105H357.394H359.394V396.017V396.326V396.636V396.948V397.262V397.577V397.893V398.211V398.531V398.852V399.174V399.498V399.823V400.15V400.479V400.808V401.14V401.472V401.806V402.142V402.479V402.817V403.157V403.499V403.841V404.185V404.531V404.878V405.226V405.575V405.926V406.279V406.632V406.987V407.344V407.701V408.06V408.421V408.783V409.146V409.51V409.875V410.242V410.611V410.98V411.351V411.723V412.096V412.471V412.846V413.224V413.602V413.981V414.362V414.744V415.127V415.512V415.897V416.284V416.672V417.061V417.452V417.843V418.236V418.63V419.025V419.421V419.819V420.217V420.617V421.018V421.419V421.822V422.227V422.632V423.038V423.445V423.854V424.263V424.674V425.086V425.498V425.912V426.327V426.743V427.16V427.578V427.997V428.417V428.838V429.26V429.683V430.107V430.532V430.958V431.385V431.813V432.242V432.672V433.103V433.534V433.967V434.401V434.835V435.271V435.707V436.144V436.583V437.022V437.462V437.903V438.344V438.787V439.231V439.675V440.12V440.566V441.013V441.461V441.91V442.359V442.809V443.26V443.712V444.165V444.618V445.073V445.528V445.983V446.44V446.897V447.355V447.814V448.274V448.734V449.195V449.657V450.12V450.583V451.047V451.512V451.977V452.443V452.91V453.377V453.845V454.314V454.784V455.254V455.724V456.196V456.668V457.14V457.614V458.088V458.562V459.037V459.513V459.989V460.466V460.944V461.422V461.901V462.38V462.86V463.34V463.821V464.302V464.784V465.267V465.75V466.233V466.717V467.202V467.687V468.173V468.659V469.145V469.632V470.12V470.607V471.096V471.585V472.074V472.564V473.054V473.544V474.035V474.527V475.019V475.511V476.004V476.497V476.99V477.484V477.978V478.473V478.967V479.463V479.958V480.454V480.951V481.447V481.944V482.441V482.939V483.437V483.935V484.434V484.932V485.431V485.931V486.43V486.93V487.43V487.931V488.431V488.932V489.433V489.935V490.436V490.938V491.44V491.942V492.444V492.947V493.45V493.953V494.456V494.959V495.462V495.966V496.47V496.974V497.478V497.982V498.486V498.991V499.495V500V500.505V501.009V501.514V502.019V502.524V503.03V503.535V504.04V504.545V505.051V505.556V506.062V506.567V507.073V507.578V508.084V508.589V509.095V509.6V510.106V510.612V511.117V511.622V512.128V512.633V513.139V513.644V514.149V514.654V515.159V515.664V516.169V516.674V517.179V517.683V518.188V518.692V519.197V519.701V520.205V520.709V521.212V521.716V522.219V522.723V523.226V523.729V524.232V524.734V525.236V525.739V526.241V526.742V527.244V527.745V528.246V528.747V529.248V529.748V530.248V530.748V531.247V531.747V532.246V532.745V533.243V533.741V534.239V534.737V535.234V535.731V536.227V536.724V537.219V537.715V538.21V538.705V539.2V539.694V540.188V540.681V541.174V541.667V542.159V542.651V543.142V543.633V544.123V544.614V545.103V545.592V546.081V546.57V547.058V547.545V548.032V548.518V549.004V549.49V549.975V550.459V550.943V551.427V551.91V552.392V552.874V553.356V553.836V554.317V554.797V555.276V555.754V556.232V556.71V557.187V557.663V558.139V558.614V559.088V559.562V560.035V560.508V560.98V561.451V561.922V562.392V562.861V563.33V563.798V564.265V564.732V565.198V565.663V566.128V566.592V567.055V567.518V567.979V568.44V568.901V569.36V569.819V570.277V570.734V571.191V571.646V572.101V572.556V573.009V573.462V573.913V574.364V574.815V575.264V575.712V576.16V576.607V577.053V577.498V577.942V578.386V578.828V579.27V579.711V580.151V580.59V581.028V581.465V581.902V582.337V582.771V583.205V583.638V584.069V584.5V584.93V585.359V585.786V586.213V586.639V587.064V587.488V587.911V588.333V588.754V589.174V589.593V590.011V590.427V590.843V591.258V591.672V592.084V592.496V592.906V593.316V593.724V594.132V594.538V594.943V595.347V595.75V596.152V596.552V596.952V597.35V597.747V598.143V598.538V598.932V599.325V599.716V600.107V600.496V600.884V601.27V601.656V602.04V602.423V602.805V603.186V603.565V603.943V604.32V604.696V605.07V605.444V605.815V606.186V606.556V606.924V607.29V607.656V608.02V608.383V608.745V609.105V609.464V609.821V610.178V610.532V610.886V611.238V611.589V611.938V612.287V612.633V612.979V613.323V613.665V614.006V614.346V614.684V615.021V615.357V615.691V616.023V616.354V616.684V617.012V617.339V617.664V617.988V618.31V618.631V618.95V619.268V619.584V619.899V620.213V620.524V620.835V621.143C359.394 629.689 362.858 635.985 368.004 640.183C373.198 644.421 380.206 646.596 387.3 646.596C394.394 646.596 401.402 644.421 406.596 640.183C411.741 635.985 415.206 629.689 415.206 621.143V620.835V620.527V620.219V619.911V619.603V619.295V618.987V618.679V618.371V618.063V617.755V617.447V617.138V616.83V616.522V616.214V615.906V615.598V615.29V614.982V614.674V614.366V614.058V613.75V613.442V613.134V612.826V612.517V612.209V611.901V611.593V611.285V610.977V610.669V610.361V610.053V609.745V609.437V609.129V608.821V608.513V608.205V607.896V607.588V607.28V606.972V606.664V606.356V606.048V605.74V605.432V605.124V604.816V604.508V604.2V603.892V603.583V603.275V602.967V602.659V602.351V602.043V601.735V601.427V601.119V600.811V600.503V600.195V599.887V599.579V599.27V598.962V598.654V598.346V598.038V597.73V597.422V597.114V596.806V596.498V596.19V595.882V595.574V595.265V594.957V594.649V594.341V594.033V593.725V593.417V593.109V592.801V592.493V592.185V591.877V591.569V591.26V590.952V590.644V590.336V590.028V589.72V589.412V589.104V588.796V588.488V588.18V587.872V587.564V587.255V586.947V586.639V586.331V586.023V585.715V585.407V585.099V584.791V584.483V584.175V583.867V583.558V583.25V582.942V582.634V582.326V582.018V581.71V581.402V581.094V580.786V580.478V580.17V579.861V579.553V579.245V578.937V578.629V578.321V578.013V577.705V577.397V577.089V576.781V576.473V576.164V575.856V575.548V575.24V574.932V574.624V574.316V574.008V573.7V573.392V573.084V572.776V572.468V572.159V571.851V571.543V571.235V570.927V570.619V570.311V570.003V569.695V569.387V569.079V568.771V568.462V568.154V567.846V567.538V567.23V566.922V566.614V566.306V565.998V565.69V565.382V565.074V564.765V564.457V564.149V563.841V563.533V563.225V562.917V562.609V562.301V561.993V561.685V561.377V561.068V560.76V560.452V560.144V559.836V559.528V559.22V558.912V558.604V558.296V557.988V557.68V557.371V557.063V556.755V556.447V556.139V555.831V555.523V555.215V554.907V554.599V554.291V553.983V553.674V553.366V553.058V552.75V552.442V552.134V551.826V551.518V551.21V550.902V550.594V550.286V549.978V549.669V549.361V549.053V548.745V548.437V548.129V547.821V547.513V547.205V546.897V546.589V546.281V545.973V545.664V545.356V545.048V544.74V544.432V544.124V543.816V543.508V543.2V542.892V542.584V542.276V541.967V541.659V541.351V541.043V540.735V540.427V540.119V539.811V539.503V539.195V538.887V538.579V538.271V537.963V537.654V537.346V537.038V536.73V536.422V536.114V535.806V535.498V535.19V534.882V534.574V534.266V533.958V533.65V533.341V533.033V532.725V532.417V532.109V531.801V531.493V531.185V530.877V530.569V530.261V529.953V529.645V529.337V529.028V528.72V528.412V528.104V527.796V527.488V527.18V526.872V526.564V526.256V525.948V525.64V525.332V525.024V524.715V524.407V524.099V523.791V523.483V523.175V522.867V522.559V522.251V521.943V521.635V521.327V521.019V520.711V520.403V520.095V519.786V519.478V519.17V518.862V518.554V518.246V517.938V517.63V517.322V517.014V516.706V516.398V516.09V515.782V515.474V515.166V514.858V514.549V514.241V513.933V513.625V513.317V513.009V512.701V512.393V512.085V511.777V511.469V511.161V510.853V510.545V510.237V509.929V509.621V509.313V509.004V508.696V508.388V508.08V507.772V507.464V507.156V506.848V506.54V506.232V505.924V505.616V505.308V505V504.692V504.384V504.076V503.768V503.46V503.152V502.844V502.535V502.227V501.919V501.611V501.303V500.995V500.687V500.379V500.071V499.763V499.455V499.147V498.839V498.531V498.223V497.915V497.607V497.299V496.991V496.683V496.375V496.067V495.759V495.451V495.142V494.834V494.526V494.218V493.91V493.602V493.294V492.986V492.678V492.37V492.062V491.754V491.446V491.138V490.83V490.522V490.214V489.906V489.598V489.29V488.982V488.674V488.366V488.058V487.75V487.442V487.134V486.826V486.518V486.21V485.902V485.594V485.286V484.978V484.669V484.361V484.053V483.745V483.437V483.129V482.821V482.513V482.205V481.897V481.589V481.281V480.973V480.665V480.357V480.049V479.741V479.433V479.125V478.817V478.509V478.201V477.893V477.585V477.277V476.969V476.661V476.353V476.045V475.737V475.429V475.121V474.813V474.505V474.197V473.889V473.581V473.273V472.965V472.657V472.349V472.041V471.733V471.425V471.117V470.809V470.501V470.193V469.885V469.577V469.269V468.961V468.653V468.345V468.037V467.729V467.421V467.113V466.805V466.497V466.189V465.881V465.573V465.265V464.957V464.649V464.341V464.033V463.725V463.417V463.404L415.206 463.392L417.739 265.131C417.739 265.128 417.739 265.124 417.739 265.12C417.742 262.647 417.745 260.207 417.749 257.809C417.771 241.867 417.79 227.757 417.79 217.537V210.729L421.472 216.455C445.64 254.034 453.569 298.583 459.01 342.537M226.978 346.112C224.916 362.744 209.994 371.383 195.692 371.436M226.978 346.112L195.692 371.436M459.01 342.537L457.025 342.783L459.009 342.535C459.009 342.536 459.01 342.537 459.01 342.537ZM195.692 371.436C188.578 371.462 181.896 369.338 177.298 365.236M195.692 371.436L177.298 365.236M177.298 365.236C172.772 361.198 170.075 355.081 171.122 346.604L177.298 365.236Z" stroke="#2533D2" stroke-width="4"/>
</svg>
